<svg id="threeCarKeys_copy" data-name="threeCarKeys copy" xmlns="http://www.w3.org/2000/svg" viewBox="0 0 166.7 353.84">
  <defs>
    <style>
      .cls-1 {
        opacity: 0.3;
      }

      .cls-2, .cls-3, .cls-4 {
        fill: #5d5d5e;
      }

      .cls-3, .cls-7 {
        opacity: 0.37;
      }

      .cls-14, .cls-15, .cls-3, .cls-4, .cls-7 {
        isolation: isolate;
      }

      .cls-14, .cls-15, .cls-4 {
        opacity: 0.27;
      }

      .cls-5 {
        fill: #ededed;
      }

      .cls-6 {
        fill: #c2c2c1;
      }

      .cls-7 {
        fill: #fff;
      }

      .cls-8 {
        fill: #727374;
      }

      .cls-9 {
        fill: #59595b;
      }

      .cls-10, .cls-14 {
        fill: #191919;
      }

      .cls-11, .cls-15 {
        fill: #333;
      }

      .cls-12 {
        fill: #424243;
      }

      .cls-13 {
        fill: #3b3c3d;
      }
    </style>
  </defs>
  <title>car-key-012</title>
  <g id="Car-key-1">
    <g id="Group_41" data-name="Group 41" class="cls-1">
      <path id="Path_730" data-name="Path 730" class="cls-2" d="M108.36,193.16v15.05h-11a4.51,4.51,0,0,0-4.55,4.49V347.93l-3,3.76a3.4,3.4,0,0,1-2.15,1.08H86.35a2.45,2.45,0,0,1-2.14-1.07L71.33,335.84a4,4,0,0,1-.54-1.62V303.86a3.85,3.85,0,0,1,.54-1.61L73.47,299v-5.65a3.8,3.8,0,0,0-.54-1.62l-.54-.81a2.53,2.53,0,0,1,.27-3.49l2.68-3.22a2.43,2.43,0,0,0,.8-1.88V277.8a2.43,2.43,0,0,0-.8-1.88l-2.41-2.42a2.61,2.61,0,0,1-.09-3.68l.09-.08,2.41-2.69a2.42,2.42,0,0,0,.79-1.88v-9.68a2.9,2.9,0,0,0-.79-1.88l-3.76-4.3v-15a2.7,2.7,0,0,0-2.68-2.69,2.7,2.7,0,0,1-2.69-2.69V193.15Z"/>
      <path id="Path_731" data-name="Path 731" class="cls-2" d="M86.89,352.5V195.31H81.52V346.58Z"/>
      <path id="Path_732" data-name="Path 732" class="cls-2" d="M108.35,208.21v20.7a2.7,2.7,0,0,1-2.69,2.68,2.91,2.91,0,0,0-2.69,2.69v15.05l-3.75,4.3a2.38,2.38,0,0,0-.8,1.88v9.68a2.86,2.86,0,0,0,.8,1.88l2.68,2.69a2.87,2.87,0,0,1,0,3.76l-2.41,2.42a2.89,2.89,0,0,0-.8,1.88v4.57a2.84,2.84,0,0,0,.8,1.88l2.68,3a3.31,3.31,0,0,1,.27,3.49l-.53.8a3.8,3.8,0,0,0-.54,1.62v5.63l2.14,3.23a3.79,3.79,0,0,1,.53,1.61V334a3,3,0,0,1-.54,1.62l-9.92,12.35V212.8a4.69,4.69,0,0,1,4.55-4.57Z"/>
      <path id="Path_733" data-name="Path 733" class="cls-3" d="M85.28,194.24,66,213.32v9.94l29.24-29Z"/>
      <path id="Path_734" data-name="Path 734" class="cls-3" d="M108.63,203.92,71.34,240.45v4l37.28-36.82Z"/>
      <path id="Path_735" data-name="Path 735" class="cls-3" d="M103,235.35a2.71,2.71,0,0,1,2.68-2.7,2.9,2.9,0,0,0,2.69-2.69v-5.64L75.63,256.56V266a5,5,0,0,1-.54,1.88l-2.69,2.68a2.86,2.86,0,0,0,0,3.77L74,275.9l29-28.21Z"/>
      <path id="Path_736" data-name="Path 736" class="cls-3" d="M101.11,295v-1.08a4,4,0,0,1,.54-1.61l.54-.81a2.54,2.54,0,0,0-.27-3.49L100,285.86l-29.24,29v9.95Z"/>
      <path id="Path_737" data-name="Path 737" class="cls-3" d="M71.61,336.65l1.07,1.08,31.11-30.63v-2.69a2.17,2.17,0,0,0-.26-1.07l-32.46,32C71.07,335.84,71.34,336.1,71.61,336.65Z"/>
      <path id="Path_738" data-name="Path 738" class="cls-3" d="M84.48,352.49a3.33,3.33,0,0,0,2.15,1.08H88a2.46,2.46,0,0,0,2.14-1.08l3-3.76L103,336.38a2,2,0,0,0,.54-1.62v-1.62L84.21,352.21Z"/>
      <path id="Path_739" data-name="Path 739" class="cls-2" d="M82.06,195.3H79.92V346.59h2.14Z"/>
      <path id="Path_740" data-name="Path 740" class="cls-2" d="M93.88,347.66H91.73V212.51a5.62,5.62,0,0,1,5.36-5.64h11.26V209h-11a3.26,3.26,0,0,0-3.22,3.22V347.67Z"/>
      <path id="Path_741" data-name="Path 741" class="cls-2" d="M93.86,348.46l-2.41-1.88,9.93-12.36a1,1,0,0,0,.26-.8V303.05c0-.26,0-.26-.27-.8l-2.14-3.5v-6.18a3.75,3.75,0,0,1,.8-2.41l.54-.81a1.73,1.73,0,0,0,0-1.61l-2.69-3a4.12,4.12,0,0,1-1.07-3v-4.29a4.34,4.34,0,0,1,1.34-3l2.42-2.42a1.3,1.3,0,0,0,0-1.84.1.1,0,0,0,0,0l-2.41-2.68a4.08,4.08,0,0,1-1.07-3V255a5.51,5.51,0,0,1,1.08-3l3.21-3.76V233.71a4.23,4.23,0,0,1,4.18-4.29h.1a1.28,1.28,0,0,0,1.35-1.2.75.75,0,0,1,0-.15V207.38H110v20.69a4.24,4.24,0,0,1-4.18,4.3h-.12a1.29,1.29,0,0,0-1.34,1.2.75.75,0,0,0,0,.15v15.58l-4,4.57a1,1,0,0,0-.27.8v9.68a1,1,0,0,0,.27.81l2.41,2.68a4.23,4.23,0,0,1-.27,5.91L100,276.16a1,1,0,0,0-.28.81v4.3a1,1,0,0,0,.27.8l2.68,3a4.43,4.43,0,0,1,.27,5.37l-.54.81a1,1,0,0,0-.27.8v5.38l1.88,2.95a4.37,4.37,0,0,1,.8,2.42v30.36a3.49,3.49,0,0,1-1.07,2.69Z"/>
      <path id="Path_742" data-name="Path 742" class="cls-2" d="M109.7,193.16h-3v15.05h3Z"/>
      <path id="Path_743" data-name="Path 743" class="cls-2" d="M87.43,353.84H86.09a3.85,3.85,0,0,1-3.22-1.62L70,336.1a4.11,4.11,0,0,1-1.08-2.68V303.06a5.18,5.18,0,0,1,.54-2.15l1.88-3v-5.37a.94.94,0,0,0-.27-.8l-.53-.81a4.46,4.46,0,0,1,.26-5.38l2.69-3.22a1,1,0,0,0,.28-.81V277a.94.94,0,0,0-.27-.8l-2.41-2.42a4.5,4.5,0,0,1-.27-5.91l2.42-2.69a1,1,0,0,0,.27-.8V255a1,1,0,0,0-.27-.8l-4-4.57V234A1.26,1.26,0,0,0,68,232.68h-.15a4.22,4.22,0,0,1-4.29-4.18V193.17h2.95v35.47A1.27,1.27,0,0,0,67.71,230a.86.86,0,0,1,.16,0,4.23,4.23,0,0,1,4.28,4.19v14.63l3.22,3.76a3.85,3.85,0,0,1,1.07,2.69v9.4a3.45,3.45,0,0,1-1.07,2.68l-2.68,3a1.29,1.29,0,0,0,0,1.84.1.1,0,0,0,0,0l2.41,2.42a4.32,4.32,0,0,1,1.34,3v4.58a3.15,3.15,0,0,1-1.07,2.69l-2.69,3.22a1,1,0,0,0-.2,1.41,1.21,1.21,0,0,0,.19.2l.54.81a4.37,4.37,0,0,1,.8,2.42v6.17l-2.15,3.5c0,.26-.26.53-.27.8v30.36a1,1,0,0,0,.27.81l12.87,16.12a1.38,1.38,0,0,0,1.07.53h1.34a2.06,2.06,0,0,0,1.08-.54l3-3.76,2.42,1.89-3,3.76A4,4,0,0,1,87.43,353.84Z"/>
      <path id="Path_744" data-name="Path 744" class="cls-2" d="M162,43.51a38.09,38.09,0,0,0-15-22.84,47,47,0,0,0-8.05-4.56,67.65,67.65,0,0,0-7-2.68c-5.1-1.62-9.93-3-14.76-4l-2.14-.54a13.06,13.06,0,0,0-3.22-.53l-3.49-.54L101.91,7c-2.15-.27-4-.26-6.17-.54-1.34,0-2.42-.27-3.76-.27H79.91a60.47,60.47,0,0,0-6.71.54C72.13,6.69,71.06,7,70,7c-4.28.54-8,1.08-12.06,1.88a13.54,13.54,0,0,1-3.22.53,113.25,113.25,0,0,0-11.27,3L38.6,14a17.72,17.72,0,0,0-2.14.8A40.85,40.85,0,0,0,22,24.15a5.54,5.54,0,0,0-1.07,1.34,3.1,3.1,0,0,0-1.34,1.34,4.57,4.57,0,0,1-1.08,1.35l-1.07,1.34a12.47,12.47,0,0,0-1.07,1.88,41.23,41.23,0,0,0-3,5.91,20.61,20.61,0,0,0-.81,2.15c-12.6,40.3,2.15,97,11.8,126.28.27.8.54,1.61.8,2.41a21.16,21.16,0,0,0,2.15,4.31A14.88,14.88,0,0,1,29,174.61a38.9,38.9,0,0,0,2.95,4,46.35,46.35,0,0,0,3.22,3.5A11,11,0,0,0,37,183.75c.54.53,1.34,1.07,1.88,1.61a33.92,33.92,0,0,0,4,2.69,17.28,17.28,0,0,0,2.15,1.08A33.1,33.1,0,0,0,49.61,191a7.66,7.66,0,0,0,2.41.53c2.95.54,5.63,1.34,8.31,1.89.8.26,1.62.27,2.69.54a7.54,7.54,0,0,0,2.41.27c2.68.54,5.1.81,7.52,1.07,1.07,0,2.14.27,3.21.27h.27a62.42,62.42,0,0,0,7.24.26h9.65a119.58,119.58,0,0,0,14.76-1.35c.53,0,.8-.27,1.33-.26,3.22-.55,6.17-1.08,9.12-1.62a31.86,31.86,0,0,0,4.82-1.34l2.42-.8c.8-.27,1.34-.81,2.14-1.08l4-2.42c.53-.53,1.34-.81,1.87-1.35a40,40,0,0,0,9.12-9.94,63.48,63.48,0,0,0,3.75-7.52c.54-1.62,1.07-3.23,1.61-4.84C168.7,104,166.55,65,162,43.51ZM84,23.09h7.78a28,28,0,0,1,4.83.54c1.07,0,2.14.27,3,.27,1.07,0,1.87.27,2.95.27.81,0,1.87.27,2.68.26,1.08.27,1.88.27,3,.54a7.88,7.88,0,0,1,2.41.53c4.57.81,8.32,1.89,11.27,2.69a7.67,7.67,0,0,0,2.41.54l1.61.8c.27.27.53.27.79.54a3.33,3.33,0,0,1,1.07,1.61,1,1,0,0,0,.26.54c0,.26.27.8.28,1.08v1.34a5.11,5.11,0,0,1-1.07,3.21v.27c0,.26-.27.27-.53.54a5.84,5.84,0,0,1-4.3,1.88H50.14c-.26,0-.54-.27-.8-.27a1.94,1.94,0,0,1-1.07-.53c-.27-.27-.54-.27-.79-.54a3.56,3.56,0,0,1-.81-1.07.92.92,0,0,1-.26-.54,4.36,4.36,0,0,1-.54-2.69V33.27c0-.26,0-.54.27-.53v-.27a1,1,0,0,1,.26-.53,7.78,7.78,0,0,1,2.4-2.41h0c.26,0,.54-.27.8-.27,2.95-1.08,5.64-1.88,8.59-2.69,1.34-.27,3-.81,4.29-1.07s2.94-.54,4.29-.81c.8,0,1.34-.26,2.14-.26.54,0,1.34-.27,1.88-.27h.54a4.47,4.47,0,0,0,1.88-.26,5.76,5.76,0,0,0,2.14-.27A8.08,8.08,0,0,0,78,23.36h3.49A8.28,8.28,0,0,1,84,23.09Z"/>
      <path id="Path_745" data-name="Path 745" class="cls-2" d="M153.15,43.5C150.74,31.15,143,20.94,132.76,16.37a113.29,113.29,0,0,0-41-10.21H83.15a123.93,123.93,0,0,0-40.77,8.6c-9.93,4-17.7,13.16-20.66,24.45-11.53,40.57,1.61,97.27,10.2,126.28,3.75,12.9,12.87,22.57,24.41,25.53,3.22.81,6.17,1.61,9.4,2.15a122.85,122.85,0,0,0,16.36,1.88H93.63a79,79,0,0,0,14.75-1.89c2.41-.54,4.55-.81,6.7-1.34,10.2-2.42,18.51-10.21,23.07-20.69l1.61-4c1.08-3,1.88-6.18,2.68-9.14C159.05,102.08,157.17,64.19,153.15,43.5ZM45.85,34.37v-.81c0-.26,0-.54.27-.53v-.27a1,1,0,0,1,.26-.53A7.9,7.9,0,0,1,48.8,29.8h0c.26,0,.54-.26.8-.26,2.95-1.08,5.64-1.88,8.59-2.7,1.34-.26,3-.8,4.28-1.07s3-.54,4.29-.81c.8,0,1.34-.26,2.15-.26.53,0,1.33-.27,1.88-.27h.53a4.45,4.45,0,0,0,1.88-.26,5.73,5.73,0,0,0,2.14-.27A8.16,8.16,0,0,0,78,23.63h13.4a29,29,0,0,1,4.83.54c1.07,0,2.14.26,2.95.27,1.07,0,1.87.27,3,.27.8,0,1.88.27,2.68.27,1.07.27,1.88.26,3,.53a7.73,7.73,0,0,1,2.42.54,115.27,115.27,0,0,1,11.26,2.69,7.72,7.72,0,0,0,2.41.53l1.61.81c.27.27.53.26.79.53a3.33,3.33,0,0,1,1.07,1.61.93.93,0,0,0,.27.54c0,.27.26.81.27,1.08v1.34a5.12,5.12,0,0,1-1.07,3.22v.27c0,.26-.27.27-.53.54A5.82,5.82,0,0,1,122,41.09H50.12c-.26,0-.53-.27-.8-.26a2.06,2.06,0,0,1-1.07-.54c-.27-.27-.53-.27-.8-.54a4,4,0,0,1-.8-1.07,1,1,0,0,1-.26-.54,4.36,4.36,0,0,1-.54-2.69Z"/>
      <path id="Path_746" data-name="Path 746" class="cls-2" d="M128.47,34.64v.54a5.07,5.07,0,0,1-1.08,3.22v.26l-.27-.27a5,5,0,0,0-2.69-1.88,157.67,157.67,0,0,0-15.83-3.76h-.26A140.75,140.75,0,0,0,88.5,30.6c-12.07-.54-25.75.8-38.63,5.64A4.92,4.92,0,0,0,48,37.58a3.53,3.53,0,0,0-.8,1.08c0-.27-.27-.28-.27-.54a4.46,4.46,0,0,1-.54-2.7v-.8a5.88,5.88,0,0,1,3.75-5.38C79.91,18,113.43,26,124.7,29.51,126.86,29.8,128.47,32.22,128.47,34.64Z"/>
      <path id="Path_747" data-name="Path 747" class="cls-2" d="M46.66,40.82l-1.08-1.88a1,1,0,0,1-.27-.81,5.76,5.76,0,0,1-.79-3.22V34.1a7.17,7.17,0,0,1,4.83-6.71c29.78-11.29,62.77-3.49,75.64.27a7.26,7.26,0,0,1,5.1,7v.27A5.42,5.42,0,0,1,129,38.4v.27l-1.88,2.15-1.07-1.88a4.68,4.68,0,0,0-1.89-1.34c-3.48-1.07-8.85-2.42-15.55-3.77h-.54A171.86,171.86,0,0,0,88.5,31.69C74.29,31.15,61.41,33,50.41,37.33a5.18,5.18,0,0,0-1.61,1.08l-.8.81Zm37-12.09H88.5a134.66,134.66,0,0,1,20.12,2.15h.53A138,138,0,0,1,125,34.64a5.51,5.51,0,0,1,2.15,1.07V34.64a4.4,4.4,0,0,0-2.95-4c-12.61-3.76-44.8-11-73.76-.27a4.37,4.37,0,0,0-3,4v1.34a4.32,4.32,0,0,1,1.88-1.07c10.19-4,21.72-5.92,34.32-5.91Z"/>
      <path id="Path_748" data-name="Path 748" class="cls-2" d="M144.29,58.28a28,28,0,0,0-16.9-19.88.26.26,0,0,1-.26-.26,0,0,0,0,1,0,0l.27.27c0,.27-.27.27-.53.54a5.77,5.77,0,0,1-4.3,1.88H50.15c-.26,0-.53-.27-.8-.26A2.06,2.06,0,0,1,48.28,40c-.27-.27-.53-.27-.79-.53a4.08,4.08,0,0,1-.81-1.08c.27-.27.54-.8.8-1.07a2.06,2.06,0,0,0-1.07.54A29.13,29.13,0,0,0,30.57,55.34c-9.66,30.09,1.61,72.28,9.12,94a29.35,29.35,0,0,0,21.19,19.08,137.27,137.27,0,0,0,23.87,3.22h6.7a103.22,103.22,0,0,0,20.13-2.43,30,30,0,0,0,14.75-8.33,31.51,31.51,0,0,0,6.44-10.21c0-.26.26-.54.27-.8C149.67,104.23,148.05,74.41,144.29,58.28Z"/>
      <path id="Path_749" data-name="Path 749" class="cls-2" d="M56.05,85.15H114a12.88,12.88,0,0,1,12.87,12.9V120.9A12.87,12.87,0,0,1,114,133.79H56.05a12.89,12.89,0,0,1-12.87-12.9V98.05A12.89,12.89,0,0,1,56.05,85.15Z"/>
      <path id="Path_750" data-name="Path 750" class="cls-2" d="M60.07,91.07h54.18a11.45,11.45,0,0,1,11.53,11.37v19.8a11.46,11.46,0,0,1-11.37,11.55H60.06a11.69,11.69,0,0,1-11.8-11.56V102.61A11.69,11.69,0,0,1,60.07,91.07Z"/>
      <path id="Path_751" data-name="Path 751" class="cls-4" d="M45.85,34.37v.8a7.9,7.9,0,0,0,.53,2.69c0,.26.27.27.27.54a5.61,5.61,0,0,0,4.83,2.68H86.36V195.3H83.68a154.89,154.89,0,0,1-31.66-4,38.49,38.49,0,0,1-27.63-25.53C15,136.18.25,79.76,12.86,39.46A38.25,38.25,0,0,1,36.45,15,146,146,0,0,1,86.61,6.14v17.2C74.82,23.07,61.93,24.41,49.87,29A5.8,5.8,0,0,0,45.85,34.37Z"/>
      <path id="Path_752" data-name="Path 752" class="cls-4" d="M148.32,162.54l-1.61,4.83a40,40,0,0,1-3.75,7.52,35.92,35.92,0,0,1-9.12,10,8.35,8.35,0,0,1-1.88,1.34,31.06,31.06,0,0,1-4,2.42c-.81.27-1.35.81-2.15,1.08l-2.41.8a32.64,32.64,0,0,1-4.83,1.34c-2.68.54-5.9,1.08-9.11,1.62-.54,0-.81.26-1.34.26-4.56.54-9.39,1.08-14.75,1.35h-7V40.81h36.2a6.32,6.32,0,0,0,4.3-1.88c0-.27.27-.28.53-.54v-.27a5.82,5.82,0,0,0,1.07-3.22V33.56a1.78,1.78,0,0,0-.26-1.08,1,1,0,0,0-.27-.54,5.59,5.59,0,0,0-1.07-1.61c-.27-.27-.54-.53-.8-.54l-1.6-.8a7.73,7.73,0,0,0-2.41-.54c-2.95-.81-6.71-1.88-11.27-2.69-.8-.27-1.61-.27-2.41-.54s-1.87-.26-3-.53c-.8,0-1.61-.27-2.68-.27-.8,0-1.88-.26-3-.27s-2.15-.27-3-.27c-1.62-.27-3.22-.27-4.83-.54H86.67V6.14h5.1a17.54,17.54,0,0,1,3.76.26,48.77,48.77,0,0,1,6.16.54l6.44.81,3.22.54c1.08.26,2.14.26,3.22.53l2.14.54a147.65,147.65,0,0,1,14.76,4q3.54,1.17,7,2.69a29.85,29.85,0,0,1,8.05,4.57,38.44,38.44,0,0,1,15,22.84C166.55,65,168.7,104,148.32,162.54Z"/>
      <path id="Path_753" data-name="Path 753" class="cls-2" d="M87.7,196.92H83.94c-2.67,0-5.09-.27-7.24-.26h-.26c-1.34,0-2.42-.27-3.22-.27-2.41-.27-5.1-.54-7.78-1.07-.79,0-1.61-.27-2.41-.27a12.14,12.14,0,0,1-2.68-.54C57.67,194,55,193.44,52,192.62c-.8-.26-1.61-.54-2.68-.8a35.78,35.78,0,0,1-4.83-1.88c-.8-.27-1.61-.81-2.41-1.08a38.07,38.07,0,0,1-4.29-2.69c-.53-.27-1.08-.81-1.61-1.07l-.28-.27c-.53-.54-1.33-1.08-1.87-1.61-1.08-1.34-2.41-2.42-3.49-3.76a39,39,0,0,1-2.95-4c-.48-.69-.93-1.41-1.34-2.14a24.42,24.42,0,0,1-2.15-4.57c-.26-.81-.53-1.61-.79-2.42C13.42,135.92-1.34,79.5,11.26,38.93c.28-.8.54-1.34.81-2.14A43.71,43.71,0,0,1,15,30.61a8.1,8.1,0,0,1,1.34-1.89l.8-1.33A5.64,5.64,0,0,1,18.22,26c.27-.54.8-.81,1.07-1.35.53-.53.8-1.07,1.34-1.33a41.7,41.7,0,0,1,15.28-9.95c.54-.27,1.07-.27,1.61-.54l.81-.26c1.6-.54,2.94-1.08,4.83-1.61,3.75-1.08,7.51-2.16,11.54-3a14,14,0,0,1,3.22-.54C61.67,6.69,65.7,6.16,70,5.62l3.22-.26c2.15-.27,4.29-.27,6.71-.54H92a18.12,18.12,0,0,1,3.75.27c2.15.27,4.29.27,6.44.53l6.44.81,3.22.54a13.36,13.36,0,0,0,3.49.54l2.14.54a116,116,0,0,1,15,4.29,54.08,54.08,0,0,1,7,2.69A50.78,50.78,0,0,1,148,19.61a39.44,39.44,0,0,1,15.58,23.63c4.83,22.57,6.44,61.8-13.68,119.84L149.4,165c-.26,1.08-.79,1.88-1.07,2.95a69.93,69.93,0,0,1-3.76,7.8,38.62,38.62,0,0,1-9.39,10.47c-.53.54-1.07.81-1.6,1.35l-.27.27c-1.35.81-2.69,1.61-4.3,2.68l-.54.27-1.61.8c-.8.27-1.61.81-2.42,1.08-1.87.53-3.48,1.07-4.82,1.34-3,.53-5.91,1.07-9.12,1.61h-1.34a132.37,132.37,0,0,1-15,1.34Zm-3.49-3.22h9.12a137.23,137.23,0,0,0,14.75-1.35l1.35-.27q4.83-.81,8.85-1.61c1.34-.27,2.68-.81,4.56-1.34a20.55,20.55,0,0,0,2.15-.8l1.61-.81.54-.26c1.61-.81,2.68-1.62,4-2.42l.27-.27c.54-.26,1.07-.8,1.61-1.08a37.93,37.93,0,0,0,8.85-9.67,30.48,30.48,0,0,0,3.49-7.25c.27-1.08.79-1.88,1.08-3l.54-1.88c20.12-57.23,18.5-95.92,13.68-118.22a35.64,35.64,0,0,0-14.22-21.77,42.71,42.71,0,0,0-7.78-4.29c-2.42-.81-4.56-1.88-7-2.68-5.11-1.62-9.93-3-14.76-4l-2.14-.54a13.14,13.14,0,0,0-3.22-.53l-3.22-.53-6.44-.81c-2.14-.28-4-.27-6.16-.54-1.34,0-2.68-.27-3.76-.27H79.94A51,51,0,0,0,73.51,8l-3.22.27c-4,.53-8.05,1.08-11.8,1.88a13.56,13.56,0,0,1-3.22.54c-3.75.81-7.51,1.88-11.26,3-1.87.54-3.22,1.07-4.83,1.61l-.81.27c-.54.26-1.06.27-1.34.53a35.07,35.07,0,0,0-14,9.14c-.27.27-.8.81-1.08,1.07-.27.54-.8.81-1.08,1.08s-.53.8-.8,1.07l-1.07,1.35c-.26.53-.8,1.07-1.07,1.61a26.57,26.57,0,0,0-2.68,5.65c-.27.53-.54,1.35-.8,1.88C1.9,79.79,16.39,135.41,26,165.23c.27.8.53,1.34.8,2.14A22,22,0,0,0,29,171.68c.54.81.81,1.34,1.34,2.14A19.54,19.54,0,0,0,33,177.59a46.2,46.2,0,0,0,3.22,3.49c.54.54,1.08.8,1.34,1.34l.28.27A8.24,8.24,0,0,0,39.72,184a15.79,15.79,0,0,0,4,2.41c.8.26,1.35.81,2.15,1.07,1.34.54,2.68,1.07,4.29,1.61a8.27,8.27,0,0,0,2.41.54,50,50,0,0,0,8.31,1.61c.8.26,1.61.27,2.41.54a7.53,7.53,0,0,0,2.41.26c2.42.27,5.1.81,7.52,1.08,1.07,0,2.14.27,3,.27h.53a66.88,66.88,0,0,0,7.49.27ZM122.84,42.16H50.69l-.8-.27c-.27,0-.54-.27-.81-.27-.53-.27-.8-.27-1.34-.55a3.53,3.53,0,0,1-1.07-.8,4.66,4.66,0,0,1-1.08-1.34c0-.26-.26-.54-.27-.8a5.81,5.81,0,0,1-.79-3.23V33a1,1,0,0,1,.28-.8.81.81,0,0,1,.27-.54c0-.26.26-.53.27-.8A4.75,4.75,0,0,1,46.68,29a7.18,7.18,0,0,1,1.61-1.35c.27-.27.54-.27,1.08-.54a88.42,88.42,0,0,1,8.85-2.69c1.34-.27,3-.8,4.28-1.07s3-.54,4.3-.81c.8,0,1.61-.27,2.14-.27S70.28,22,70.82,22H73.5a6.73,6.73,0,0,0,2.14-.27c1.08,0,1.88-.26,3-.27H91.73a29.25,29.25,0,0,1,5.11.54c1.07,0,2.14.28,3,.27,1.07,0,1.87.27,2.95.27.8,0,1.87.27,2.68.27l3,.53c.8.27,1.61.27,2.41.54,3.76.81,7.52,1.61,11.27,2.69l.53.26c.8.27,1.61.28,2.15.54a7.83,7.83,0,0,1,2.14,1.08,3.84,3.84,0,0,0,1.08.8,4.75,4.75,0,0,1,1.34,1.89c0,.26.27.54.27.8a3.43,3.43,0,0,1,.27,1.61v1.08a8.86,8.86,0,0,1-1.07,3.76l-.81.8a5.81,5.81,0,0,1-5.11,3Zm-72.16-3h72.15a5,5,0,0,0,3.22-1.34l.27-.27.27-.27a3.06,3.06,0,0,0,.8-2.15v-.81a1.15,1.15,0,0,0-.27-.8c0-.27,0-.27-.27-.27-.26-.54-.54-.81-.8-1.35l-.53-.53a2.16,2.16,0,0,0-1.35-.54c-.53-.27-1.34-.26-1.87-.53l-.54-.27c-3.75-1.08-7.5-1.88-11-2.69-.8-.27-1.61-.27-2.41-.54l-2.95-.53c-.81,0-1.61-.27-2.42-.27a11.27,11.27,0,0,0-3-.27,11.27,11.27,0,0,0-3-.27,30,30,0,0,0-4.83-.27l-1.08-1.89V25H78.29a8.08,8.08,0,0,0-2.68.27,5.79,5.79,0,0,0-2.15.27H70.78c-.54,0-1.06.27-1.61.27-.8,0-1.61.27-2.14.26-1.35.27-3,.54-4.29.81a24.28,24.28,0,0,0-4.29,1.08,73.78,73.78,0,0,0-8.31,2.68l-.53.54c-.27.27-.8.54-1.07.8a3.66,3.66,0,0,0-.8,1.08c0,.26-.27.27-.27.53v1.88A3.93,3.93,0,0,0,48,37.33a.81.81,0,0,1,.27.54c.27.27.26.54.54.81l.53.53c.27,0,.28.27.54.27.26-.54.54-.55.8-.28ZM48.26,27.92A1.5,1.5,0,0,0,48,29.79l1.07-.53Z"/>
      <path id="Path_754" data-name="Path 754" class="cls-2" d="M114,135.12H56.05A13.86,13.86,0,0,1,42.1,121.34a.67.67,0,0,1,0-.2V98.3a13.86,13.86,0,0,1,13.76-14H114a13.86,13.86,0,0,1,14,13.78v23A14.21,14.21,0,0,1,114,135.12ZM56.05,86.23a11.91,11.91,0,0,0-11.8,11.82v22.84a11.91,11.91,0,0,0,11.8,11.82H114a11.93,11.93,0,0,0,11.8-11.83V98.05A11.93,11.93,0,0,0,114,86.23Z"/>
      <path id="Path_755" data-name="Path 755" class="cls-4" d="M148.31,162.53c-.53,1.61-1.07,3.23-1.61,4.83a39.39,39.39,0,0,1-3.75,7.52,37.37,37.37,0,0,1-4-2.95c-.28-.27-.54-.53-.8-.54a86.87,86.87,0,0,1-9.39-8.07,23.61,23.61,0,0,1-2.42-2.68,89.24,89.24,0,0,1-13.14-18.54,70.32,70.32,0,0,1-3.75-8.07,108.17,108.17,0,0,1-5.64-18.8A90.85,90.85,0,0,1,102.45,98a35.59,35.59,0,0,1,.27-5.37L103,91V90l.54-4.57.26-3.23,2.95-29.55v-.26l1.07-11.29h5.9v1.34L112.36,58.8v1.88L111,74.38l-.8,9.39v1.34A44.89,44.89,0,0,0,110,91a64.53,64.53,0,0,0,.54,10.21,83.2,83.2,0,0,0,9.92,31.16,91.45,91.45,0,0,0,7,10.75,68.23,68.23,0,0,0,5.63,6.71c1.88,1.89,3.49,3.76,5.64,5.64,1.33,1.07,2.41,2.15,3.75,3.22C144.29,159.85,146.17,161.19,148.31,162.53Z"/>
    </g>
    <g id="Group_40" data-name="Group 40">
      <path id="Path_730-2" data-name="Path 730-2" class="cls-5" d="M102,188v15H91a4.53,4.53,0,0,0-4.56,4.48v135l-3,3.76a3.34,3.34,0,0,1-2.14,1.07H80a2.42,2.42,0,0,1-2.15-1.07L64.94,330.47a3.71,3.71,0,0,1-.54-1.61V298.55a3.63,3.63,0,0,1,.54-1.6l2.15-3.22V288.1a3.71,3.71,0,0,0-.54-1.61l-.53-.8a2.53,2.53,0,0,1,.27-3.49L69,279a2.4,2.4,0,0,0,.8-1.88v-4.56a2.48,2.48,0,0,0-.8-1.88l-2.41-2.42a2.59,2.59,0,0,1-.09-3.66l.08-.09L69,261.81a2.44,2.44,0,0,0,.79-1.88v-9.66a3,3,0,0,0-.79-1.88l-3.76-4.29v-15a2.68,2.68,0,0,0-2.68-2.68,2.68,2.68,0,0,1-2.68-2.68V188.05Z"/>
      <path id="Path_731-2" data-name="Path 731-2" class="cls-6" d="M80.49,347.09V190.18H75.13v151Z"/>
      <path id="Path_732-2" data-name="Path 732-2" class="cls-6" d="M102,203.05v20.66a2.69,2.69,0,0,1-2.68,2.68,2.87,2.87,0,0,0-2.68,2.68v15l-3.76,4.29a2.45,2.45,0,0,0-.8,1.88v9.66a3,3,0,0,0,.8,1.88l2.68,2.68a2.87,2.87,0,0,1,0,3.75l-2.42,2.42a2.9,2.9,0,0,0-.8,1.88v4.56a3,3,0,0,0,.8,1.88l2.69,2.95a3.33,3.33,0,0,1,.27,3.49l-.55.8a3.83,3.83,0,0,0-.53,1.62v5.63l2.14,3.22a3.71,3.71,0,0,1,.54,1.61V328.6a2.73,2.73,0,0,1-.54,1.6L87.2,342.53V207.62a4.71,4.71,0,0,1,4.56-4.56Z"/>
      <path id="Path_733-2" data-name="Path 733-2" class="cls-7" d="M78.89,189.1,59.58,208.15v9.92l29.23-29Z"/>
      <path id="Path_734-2" data-name="Path 734-2" class="cls-7" d="M102.23,198.76,64.94,235.24v4l37.28-36.75Z"/>
      <path id="Path_735-2" data-name="Path 735-2" class="cls-7" d="M96.59,230.14a2.68,2.68,0,0,1,2.69-2.68,2.88,2.88,0,0,0,2.68-2.68v-5.64L69.24,251.33v9.38a5,5,0,0,1-.53,1.88L66,265.27A2.86,2.86,0,0,0,66,269l1.61,1.61,29-28.17Z"/>
      <path id="Path_736-2" data-name="Path 736-2" class="cls-7" d="M94.72,289.69v-1.08a3.83,3.83,0,0,1,.53-1.61l.54-.81a2.52,2.52,0,0,0-.27-3.48l-1.87-2.15-29.24,29v9.92Z"/>
      <path id="Path_737-2" data-name="Path 737-2" class="cls-7" d="M65.21,331.26l1.07,1.07,31.11-30.57v-2.68a2.17,2.17,0,0,0-.26-1.07L64.67,329.92A2.78,2.78,0,0,0,65.21,331.26Z"/>
      <path id="Path_738-2" data-name="Path 738-2" class="cls-7" d="M78.09,347.09a3.34,3.34,0,0,0,2.14,1.07h1.34a2.46,2.46,0,0,0,2.15-1.06l2.94-3.76L96.59,331a2,2,0,0,0,.53-1.62v-1.6l-19.31,19Z"/>
      <path id="Path_739-2" data-name="Path 739-2" class="cls-8" d="M75.66,190.17H73.52v151h2.15Z"/>
      <path id="Path_740-2" data-name="Path 740-2" class="cls-8" d="M87.47,342.26H85.33V207.35a5.63,5.63,0,0,1,5.36-5.64H102v2.14H91a3.27,3.27,0,0,0-3.22,3.23V342.27Z"/>
      <path id="Path_741-2" data-name="Path 741-2" class="cls-9" d="M87.48,343.07l-2.42-1.88L95,328.85a1,1,0,0,0,.26-.8V297.74c0-.26,0-.26-.27-.8l-2.14-3.49v-6.16a3.64,3.64,0,0,1,.8-2.42l.53-.8a1.67,1.67,0,0,0,0-1.61l-2.68-2.95a4,4,0,0,1-1.07-2.95v-4.3a4.26,4.26,0,0,1,1.35-2.95l2.41-2.41a1.3,1.3,0,0,0,0-1.83s0,0,0,0l-2.42-2.68a4,4,0,0,1-1.07-3v-9.65a5.52,5.52,0,0,1,1.07-3L95,243V228.55a4.25,4.25,0,0,1,4.19-4.3h.1a1.26,1.26,0,0,0,1.34-1.19.75.75,0,0,1,0-.15V202.25h3V222.9a4.25,4.25,0,0,1-4.18,4.31.41.41,0,0,0-.11,0A1.26,1.26,0,0,0,98,228.39V244.1l-4,4.56a1,1,0,0,0-.28.81v9.65a.94.94,0,0,0,.27.8l2.41,2.69a4.22,4.22,0,0,1-.26,5.9l-2.42,2.41a1,1,0,0,0-.27.81V276a1,1,0,0,0,.27.8l2.69,2.95a4.45,4.45,0,0,1,.26,5.37l-.53.79a1,1,0,0,0-.27.81v5.36L97.68,295a4.37,4.37,0,0,1,.8,2.41v30.33a3.43,3.43,0,0,1-1.07,2.68Z"/>
      <path id="Path_742-2" data-name="Path 742-2" class="cls-9" d="M103.29,188h-2.94v15h3Z"/>
      <path id="Path_743-2" data-name="Path 743-2" class="cls-9" d="M81,348.43H79.69a3.82,3.82,0,0,1-3.21-1.61L63.61,330.73a4.06,4.06,0,0,1-1.08-2.68V297.73a5,5,0,0,1,.54-2.14l1.87-3v-5.36a1,1,0,0,0-.27-.81l-.54-.79a4.43,4.43,0,0,1,.27-5.37l2.68-3.22a1,1,0,0,0,.27-.8v-4.56a1,1,0,0,0-.27-.8l-2.41-2.42a4.49,4.49,0,0,1-.27-5.9l2.41-2.68a1,1,0,0,0,.27-.8v-9.39a1,1,0,0,0-.26-.8l-4-4.57V228.79a1.28,1.28,0,0,0-1.19-1.35h-.16a4.25,4.25,0,0,1-4.29-4.18V188H60.1v35.41a1.28,1.28,0,0,0,1.19,1.34.86.86,0,0,0,.16,0A4.25,4.25,0,0,1,65.74,229v14.59L69,247.3A3.82,3.82,0,0,1,70,250v9.38A3.52,3.52,0,0,1,69,262.05L66.28,265a1.29,1.29,0,0,0,0,1.83.1.1,0,0,0,.05,0l2.41,2.42A4.3,4.3,0,0,1,70,272.24v4.56A3.09,3.09,0,0,1,69,279.48l-2.68,3.22a1,1,0,0,0-.2,1.41,1,1,0,0,0,.2.2l.54.8a4.34,4.34,0,0,1,.8,2.41v6.16l-2.14,3.49c0,.27-.27.54-.26.8v30.31a1,1,0,0,0,.27.8l12.87,16.09a1.37,1.37,0,0,0,1.07.54h1.34a2,2,0,0,0,1.07-.54l3-3.75,2.41,1.87-2.95,3.76A4,4,0,0,1,81,348.43Z"/>
      <path id="Path_744-2" data-name="Path 744-2" class="cls-10" d="M155.6,38.63a38,38,0,0,0-15-22.8,47,47,0,0,0-8.05-4.56c-2.28-1-4.61-1.9-7-2.68-5.1-1.61-9.93-3-14.75-4L108.66,4a13,13,0,0,0-3.22-.53L102,3l-6.44-.79c-2.15-.28-4-.27-6.17-.54-1.34,0-2.42-.27-3.76-.27H73.52a63,63,0,0,0-6.71.54c-1.07,0-2.14.27-3.22.26-4.28.54-8,1.08-12.07,1.88a13.48,13.48,0,0,1-3.21.54,115,115,0,0,0-11.26,3L32.22,9.12a18.52,18.52,0,0,0-2.15.8,40.85,40.85,0,0,0-14.49,9.39,5.79,5.79,0,0,0-1.07,1.34A3.21,3.21,0,0,0,13.17,22a4.53,4.53,0,0,1-1.07,1.35L11,24.69A11.9,11.9,0,0,0,10,26.56a42.24,42.24,0,0,0-3,5.9,18.52,18.52,0,0,0-.8,2.15C-6.4,74.84,8.34,131.44,18,160.67c.27.8.53,1.61.8,2.41a21.6,21.6,0,0,0,2.15,4.3,14.54,14.54,0,0,1,1.6,2.14,37.37,37.37,0,0,0,2.95,4A41,41,0,0,0,28.72,177a11.44,11.44,0,0,0,1.87,1.61c.54.53,1.35,1.07,1.88,1.61a34.56,34.56,0,0,0,4,2.68A15.94,15.94,0,0,0,38.63,184a31.24,31.24,0,0,0,4.56,1.88,7.67,7.67,0,0,0,2.41.54c2.95.53,5.64,1.34,8.31,1.87.8.27,1.61.28,2.68.55a7.59,7.59,0,0,0,2.42.26c2.68.55,5.1.8,7.51,1.07,1.08,0,2.14.27,3.22.27H70a62.5,62.5,0,0,0,7.24.26H86.9a121.56,121.56,0,0,0,14.75-1.34c.54,0,.81-.27,1.34-.27,3.22-.54,6.17-1.07,9.12-1.6a32.64,32.64,0,0,0,4.83-1.34l2.41-.81c.8-.26,1.34-.81,2.14-1.07l4-2.42c.53-.53,1.34-.79,1.88-1.34a40.06,40.06,0,0,0,9.12-9.92,64.84,64.84,0,0,0,3.76-7.5c.54-1.62,1.08-3.22,1.61-4.83C162.31,99,160.17,60.09,155.6,38.63ZM77.54,18.25h7.79a27.9,27.9,0,0,1,4.82.54c1.08,0,2.15.27,2.95.27,1.08,0,1.88.26,3,.27.81,0,1.88.27,2.69.26,1.07.27,1.87.27,3,.54a7.66,7.66,0,0,1,2.41.53c4.56.8,8.31,1.88,11.27,2.69a8.08,8.08,0,0,0,2.41.53l1.61.81c.27.27.54.26.79.53a3.33,3.33,0,0,1,1.07,1.61.93.93,0,0,0,.27.54c0,.27.27.81.27,1.07v1.34A5.15,5.15,0,0,1,120.71,33v.26c0,.27-.27.27-.54.54a5.82,5.82,0,0,1-4.28,1.88H43.75c-.27,0-.54-.27-.8-.27a1.94,1.94,0,0,1-1.07-.53c-.28-.27-.54-.27-.8-.54a3.53,3.53,0,0,1-.8-1.07,1,1,0,0,1-.27-.54A4.39,4.39,0,0,1,39.48,30V28.42c0-.26,0-.54.27-.53v-.27a.9.9,0,0,1,.27-.53,7.78,7.78,0,0,1,2.39-2.42h0c.27,0,.54-.26.81-.26,3-1.07,5.63-1.88,8.58-2.68,1.34-.27,2.94-.8,4.29-1.07s2.94-.54,4.29-.8c.8,0,1.34-.27,2.14-.27.54,0,1.34-.27,1.88-.27h.53a4.62,4.62,0,0,0,1.88-.27A5.79,5.79,0,0,0,69,18.79a7.82,7.82,0,0,0,2.68-.27h3.49A8.19,8.19,0,0,1,77.54,18.25Z"/>
      <path id="Path_745-2" data-name="Path 745-2" class="cls-11" d="M146.75,38.63c-2.42-12.34-10.2-22.54-20.39-27.09a113.53,113.53,0,0,0-41-10.2H76.74A123.71,123.71,0,0,0,36,9.93c-9.93,4-17.71,13.14-20.66,24.4C3.79,74.84,16.93,131.44,25.51,160.4c3.75,12.88,12.87,22.53,24.41,25.48,3.22.8,6.17,1.61,9.39,2.14a123.23,123.23,0,0,0,16.36,1.88H87.21A78.86,78.86,0,0,0,102,188c2.41-.54,4.56-.8,6.7-1.35,10.19-2.4,18.51-10.18,23.07-20.64.54-1.35,1.07-2.69,1.61-4,1.07-2.95,1.88-6.17,2.68-9.12C152.66,97.11,150.77,59.28,146.75,38.63ZM39.46,29.51v-.8c0-.27,0-.54.27-.54v-.26a1,1,0,0,1,.27-.54A7.84,7.84,0,0,1,42.41,25h0c.26,0,.54-.26.8-.27,2.95-1.06,5.64-1.87,8.58-2.67,1.35-.27,3-.8,4.29-1.07s3-.54,4.3-.81c.8,0,1.33-.26,2.14-.26.53,0,1.34-.27,1.88-.27h.53a4.45,4.45,0,0,0,1.88-.26A5.79,5.79,0,0,0,69,19.07a8.1,8.1,0,0,0,2.68-.27H85.05a28.92,28.92,0,0,1,4.82.54c1.08,0,2.15.27,2.95.27,1.08,0,1.88.27,3,.27.8,0,1.88.27,2.69.27,1.06.27,1.87.26,3,.53a7.67,7.67,0,0,1,2.41.54,113.73,113.73,0,0,1,11.27,2.68,8,8,0,0,0,2.41.54l1.61.8c.27.27.54.27.79.54A3.33,3.33,0,0,1,121,27.39a1,1,0,0,0,.27.54c0,.26.27.8.27,1.06v1.34a5.13,5.13,0,0,1-1.08,3.22v.27c0,.26-.27.26-.54.54a5.81,5.81,0,0,1-4.29,1.87H43.74c-.27,0-.54-.27-.8-.27a2,2,0,0,1-1.08-.53c-.27-.27-.53-.27-.79-.54a3.53,3.53,0,0,1-.8-1.07.93.93,0,0,1-.27-.54,4.45,4.45,0,0,1-.53-2.68Z"/>
      <path id="Path_746-2" data-name="Path 746-2" class="cls-10" d="M122.07,29.78v.54A5.15,5.15,0,0,1,121,33.54v.26l-.27-.27a5,5,0,0,0-2.68-1.88,159,159,0,0,0-15.83-3.76H102a140.73,140.73,0,0,0-19.85-2.14c-12.07-.54-25.75.8-38.62,5.63a4.92,4.92,0,0,0-1.88,1.34,3.7,3.7,0,0,0-.8,1.08c0-.27-.27-.27-.27-.54A4.45,4.45,0,0,1,40,30.58v-.8a5.84,5.84,0,0,1,3.75-5.37c29.78-11.26,63.3-3.22,74.57.28C120.47,25,122.08,27.36,122.07,29.78Z"/>
      <path id="Path_747-2" data-name="Path 747-2" d="M40.26,36l-1.07-1.88a1,1,0,0,1-.27-.8,5.69,5.69,0,0,1-.8-3.22v-.8A7.14,7.14,0,0,1,43,22.55c29.78-11.27,62.77-3.49,75.64.27a7.25,7.25,0,0,1,5.1,7v.27a5.43,5.43,0,0,1-1.07,3.48v.26L120.74,36l-1.07-1.88a4.65,4.65,0,0,0-1.88-1.33c-3.48-1.08-8.85-2.42-15.55-3.76h-.54a173.9,173.9,0,0,0-19.58-2.15C67.91,26.29,55,28.17,44,32.46a5.45,5.45,0,0,0-1.61,1.07l-.8.81Zm37-12.06H82.1A136,136,0,0,1,102.22,26h.54a138.75,138.75,0,0,1,15.82,3.75,5.42,5.42,0,0,1,2.14,1.08V29.78a4.36,4.36,0,0,0-3-4C105.18,22,73,14.76,44,25.49a4.37,4.37,0,0,0-3,4v1.34A4.32,4.32,0,0,1,43,29.78c10.19-4,21.72-5.9,34.33-5.89Z"/>
      <path id="Path_748-2" data-name="Path 748-2" class="cls-12" d="M137.9,53.39A28,28,0,0,0,121,33.54a.27.27,0,0,1-.27-.26v0l.27.27c0,.27-.27.27-.53.54a5.84,5.84,0,0,1-4.3,1.88H43.76c-.26,0-.54-.27-.8-.26a2,2,0,0,1-1.07-.54c-.27-.27-.54-.27-.8-.54a3.7,3.7,0,0,1-.8-1.07c.27-.27.54-.79.8-1.07A2,2,0,0,0,40,33,29.09,29.09,0,0,0,24.18,50.44c-9.65,30,1.61,72.15,9.12,93.88a29.31,29.31,0,0,0,21.19,19,135.36,135.36,0,0,0,23.88,3.22h6.7a103.37,103.37,0,0,0,20.12-2.41,30,30,0,0,0,14.75-8.31,31.21,31.21,0,0,0,6.43-10.2c0-.26.27-.53.27-.8C143.26,99.25,141.65,69.48,137.9,53.39Z"/>
      <path id="Path_749-2" data-name="Path 749-2" class="cls-11" d="M49.66,80.2h57.93a12.86,12.86,0,0,1,12.87,12.87v22.81a12.89,12.89,0,0,1-12.88,12.87H49.65a12.88,12.88,0,0,1-12.87-12.88V93.08A12.89,12.89,0,0,1,49.66,80.2Z"/>
      <path id="Path_750-2" data-name="Path 750-2" class="cls-13" d="M53.68,86.11h54.18A11.46,11.46,0,0,1,119.4,97.48v19.75A11.45,11.45,0,0,1,108,128.77H53.68a11.68,11.68,0,0,1-11.8-11.54V97.65A11.68,11.68,0,0,1,53.68,86.11Z"/>
      <path id="Path_751-2" data-name="Path 751-2" class="cls-14" d="M39.46,29.51v.79A8,8,0,0,0,40,33c0,.26.27.27.27.54a5.66,5.66,0,0,0,4.83,2.68H80v154H77.28a155.48,155.48,0,0,1-31.65-4A38.44,38.44,0,0,1,18,160.67C8.61,131.17-6.14,74.84,6.46,34.61A38.19,38.19,0,0,1,30.06,10.2,146.41,146.41,0,0,1,80.21,1.35V18.52c-11.8-.27-24.68,1.07-36.75,5.63A5.72,5.72,0,0,0,39.46,29.51Z"/>
      <path id="Path_752-2" data-name="Path 752-2" class="cls-15" d="M141.92,157.46c-.53,1.61-1.07,3.22-1.6,4.83a39.06,39.06,0,0,1-3.76,7.51,35.52,35.52,0,0,1-9.12,9.92,7.76,7.76,0,0,1-1.88,1.34,31.17,31.17,0,0,1-4,2.42c-.8.27-1.34.81-2.14,1.07l-2.41.81a32.18,32.18,0,0,1-4.82,1.34c-2.69.53-5.91,1.07-9.12,1.6-.54,0-.81.27-1.34.27-4.56.53-9.39,1.08-14.75,1.34H80V36h36.21a6.36,6.36,0,0,0,4.3-1.88c0-.26.27-.27.53-.54v-.26a5.72,5.72,0,0,0,1.07-3.22V28.71a1.62,1.62,0,0,0-.26-1.07.92.92,0,0,0-.26-.54,5.87,5.87,0,0,0-1.07-1.61c-.27-.27-.54-.54-.8-.55l-1.61-.8a8,8,0,0,0-2.41-.54c-3-.8-6.71-1.88-11.27-2.68-.8-.27-1.61-.27-2.41-.54s-1.88-.27-3-.53c-.79,0-1.61-.27-2.68-.27-.8,0-1.87-.27-2.95-.27s-2.14-.27-3-.27c-1.61-.27-3.21-.27-4.83-.54H80.27V1.33h5.1a17.54,17.54,0,0,1,3.76.26,47.13,47.13,0,0,1,6.17.54l6.44.8,3.21.53c1.08.27,2.14.27,3.22.53l2.15.54q7.47,1.65,14.75,4c2.36.78,4.69,1.67,7,2.68a29.67,29.67,0,0,1,8.05,4.56,38.35,38.35,0,0,1,15,22.8C160.16,60.1,162.31,99,141.92,157.46Z"/>
      <path id="Path_753-2" data-name="Path 753-2" d="M81.3,191.79H77.54c-2.67,0-5.09-.27-7.24-.27H70c-1.34,0-2.42-.27-3.22-.27-2.41-.27-5.1-.54-7.78-1.08-.79,0-1.61-.27-2.41-.26a12.34,12.34,0,0,1-2.69-.54c-2.68-.54-5.37-1.07-8.31-1.88-.8-.26-1.62-.53-2.68-.8a35.73,35.73,0,0,1-4.83-1.87c-.8-.27-1.61-.81-2.41-1.08a38.07,38.07,0,0,1-4.29-2.69c-.53-.27-1.07-.8-1.61-1.07l-.27-.27c-.54-.53-1.34-1.07-1.87-1.61-1.08-1.34-2.42-2.41-3.49-3.76a37.37,37.37,0,0,1-2.95-4,24.93,24.93,0,0,1-1.34-2.15,23.36,23.36,0,0,1-2.15-4.55l-.8-2.42C7,130.91-7.74,74.57,4.87,34.07c.27-.8.54-1.34.8-2.15a45.91,45.91,0,0,1,2.95-6.17A7.82,7.82,0,0,1,10,23.88l.8-1.34a5.3,5.3,0,0,1,1.07-1.33c.27-.54.8-.8,1.07-1.35.53-.54.8-1.07,1.34-1.34A41.79,41.79,0,0,1,29.54,8.6c.54-.27,1.07-.26,1.61-.54l.8-.27c1.61-.53,2.95-1.06,4.83-1.61C40.54,5.11,44.3,4,48.31,3.23a14.08,14.08,0,0,1,3.22-.54c3.75-.8,7.78-1.34,12.07-1.88L66.82.55C69,.28,71.11.28,73.52,0H85.59a18.21,18.21,0,0,1,3.76.27c2.14.27,4.29.27,6.44.53l6.43.8,3.22.54a14.09,14.09,0,0,0,3.48.53l2.15.54a113.83,113.83,0,0,1,15,4.3,53.34,53.34,0,0,1,7,2.68,52.21,52.21,0,0,1,8.58,4.56A39.44,39.44,0,0,1,157.2,38.38C162,60.91,163.64,100.06,143.52,158l-.53,1.88c-.27,1.07-.8,1.88-1.07,3a69.57,69.57,0,0,1-3.75,7.78,38.76,38.76,0,0,1-9.39,10.46c-.53.54-1.07.81-1.6,1.34l-.27.28c-1.34.79-2.69,1.6-4.29,2.68l-.54.27-1.61.8c-.8.27-1.61.8-2.42,1.07-1.87.54-3.49,1.08-4.82,1.34-3,.54-5.91,1.08-9.12,1.61h-1.34a137.35,137.35,0,0,1-15,1.34H81.3Zm-3.49-3.22h9.12a137.44,137.44,0,0,0,14.75-1.33L103,187q4.83-.81,8.85-1.61c1.35-.27,2.68-.8,4.56-1.34a18.52,18.52,0,0,0,2.15-.8l1.61-.81.54-.26c1.62-.81,2.69-1.61,4-2.42l.27-.27c.54-.26,1.08-.8,1.62-1.07a38.19,38.19,0,0,0,8.85-9.65A30,30,0,0,0,139,161.5c.27-1.07.8-1.88,1.07-2.95l.53-1.88c20.12-57.13,18.51-95.75,13.68-118a35.53,35.53,0,0,0-14.21-21.72,44.35,44.35,0,0,0-7.78-4.3c-2.41-.8-4.56-1.88-7-2.68-5.09-1.61-9.92-2.95-14.75-4l-2.14-.54a13.56,13.56,0,0,0-3.22-.54L102,4.32l-6.43-.81c-2.15-.26-4-.26-6.17-.54C88,3,86.68,2.71,85.6,2.71H73.53a49.5,49.5,0,0,0-6.43.54l-3.22.26c-4,.54-8.05,1.08-11.8,1.88a13.57,13.57,0,0,1-3.22.55c-3.75.8-7.51,1.87-11.26,3-1.88.53-3.22,1.07-4.84,1.61l-.8.26c-.54.27-1.07.27-1.34.54A35.08,35.08,0,0,0,16.67,20.4l-1.08,1.08c-.27.53-.8.79-1.07,1.07s-.54.8-.8,1.07L12.65,25c-.27.54-.8,1.08-1.07,1.61A26.52,26.52,0,0,0,8.9,32.21c-.27.54-.54,1.34-.8,1.88C-4.5,74.86,10,130.38,19.64,160.15c.27.81.53,1.34.8,2.15a22,22,0,0,0,2.14,4.29c.54.8.81,1.35,1.35,2.15a18.7,18.7,0,0,0,2.68,3.75A42.52,42.52,0,0,0,29.83,176c.53.53,1.07.8,1.34,1.34l.27.27a8.52,8.52,0,0,0,1.87,1.34,15.79,15.79,0,0,0,4,2.41c.8.27,1.35.81,2.15,1.07,1.34.55,2.68,1.08,4.29,1.62a7.94,7.94,0,0,0,2.41.53,49.92,49.92,0,0,0,8.32,1.61c.8.26,1.61.27,2.41.53a7.3,7.3,0,0,0,2.42.27c2.41.27,5.1.8,7.51,1.07,1.07,0,2.14.27,3,.27h.53a69.44,69.44,0,0,0,7.49.26ZM116.44,37.29H44.29l-.8-.27c-.27,0-.54-.27-.81-.27-.53-.27-.8-.27-1.33-.54a3.66,3.66,0,0,1-1.08-.8,4.62,4.62,0,0,1-1.07-1.34c0-.26-.27-.54-.27-.8a5.7,5.7,0,0,1-.8-3.23V28.16a1,1,0,0,1,.27-.8.79.79,0,0,1,.26-.53c0-.27.27-.54.27-.8a4.92,4.92,0,0,1,1.34-1.88,7.41,7.41,0,0,1,1.61-1.34c.27-.27.54-.26,1.07-.54a87.76,87.76,0,0,1,8.86-2.68c1.34-.27,2.94-.8,4.29-1.07S59,18,60.39,17.71c.8,0,1.61-.27,2.14-.26s1.34-.27,1.88-.27h2.68a6.46,6.46,0,0,0,2.14-.27c1.08,0,1.88-.26,3-.27H85.32a29.15,29.15,0,0,1,5.11.54c1.07,0,2.14.28,2.95.27,1.07,0,1.87.27,3,.27.81,0,1.87.27,2.68.27l2.95.53c.8.27,1.62.27,2.42.54,3.75.8,7.51,1.61,11.27,2.68l.53.27c.8.27,1.61.27,2.15.54a8.09,8.09,0,0,1,2.14,1.07,3.66,3.66,0,0,0,1.08.8,4.85,4.85,0,0,1,1.34,1.88c0,.27.26.54.27.81a3.39,3.39,0,0,1,.27,1.61v1.07a8.72,8.72,0,0,1-1.07,3.76c-.26.27-.54.53-.81.81a5.76,5.76,0,0,1-5.1,2.93ZM44.29,34.34h72.15A5,5,0,0,0,119.66,33l.27-.27.27-.27a3.06,3.06,0,0,0,.8-2.15v-.8a1.14,1.14,0,0,0-.27-.81c0-.26,0-.26-.27-.27-.26-.54-.53-.81-.79-1.34l-.54-.53a2.1,2.1,0,0,0-1.34-.54c-.54-.27-1.35-.27-1.88-.53l-.54-.27c-3.76-1.08-7.5-1.88-11-2.68-.8-.27-1.61-.27-2.41-.54l-3-.54c-.8,0-1.61-.27-2.41-.26a10.51,10.51,0,0,0-2.95-.27,10.51,10.51,0,0,0-3-.27,28,28,0,0,0-4.84-.27l-1.07-1.88v1.6H71.92a8.16,8.16,0,0,0-2.69.27,5.73,5.73,0,0,0-2.14.27H64.41c-.54,0-1.07.27-1.61.27-.81,0-1.61.27-2.14.27-1.35.27-2.95.53-4.3.8a25.39,25.39,0,0,0-4.29,1.07,75.87,75.87,0,0,0-8.31,2.68l-.53.54c-.27.27-.8.53-1.07.81a3.49,3.49,0,0,0-.8,1.07c0,.26-.27.27-.27.54v1.88a3.76,3.76,0,0,0,.54,1.87.79.79,0,0,1,.26.54c.28.27.27.54.54.8l.54.53c.27,0,.27.27.54.27.24-.53.5-.53.78-.26ZM41.87,23.08A1.52,1.52,0,0,0,41.6,25l1.08-.54Z"/>
      <path id="Path_754-2" data-name="Path 754-2" class="cls-10" d="M107.58,130.09H49.65A13.86,13.86,0,0,1,35.7,116.33v-23a13.86,13.86,0,0,1,13.76-14h58.13a13.85,13.85,0,0,1,14,13.75v23A14.21,14.21,0,0,1,107.58,130.09ZM49.65,81.28a11.9,11.9,0,0,0-11.8,11.8v22.8a11.91,11.91,0,0,0,11.81,11.8h57.93a11.91,11.91,0,0,0,11.8-11.8V93.08a11.91,11.91,0,0,0-11.8-11.8Z"/>
      <path id="Path_755-2" data-name="Path 755-2" class="cls-14" d="M141.91,157.45c-.53,1.62-1.07,3.22-1.61,4.84a38.73,38.73,0,0,1-3.75,7.51,38.9,38.9,0,0,1-4-3c-.27-.27-.54-.53-.79-.54a87.73,87.73,0,0,1-9.39-8,23.61,23.61,0,0,1-2.42-2.68,89.42,89.42,0,0,1-13.14-18.51A74.52,74.52,0,0,1,103,129a107.67,107.67,0,0,1-5.63-18.78A91.38,91.38,0,0,1,96,93.08a35.66,35.66,0,0,1,.28-5.36l.27-1.61V85l.53-4.55.27-3.22,3-29.49V47.5l1.08-11.26h5.9v1.34L106,53.94v1.87l-1.34,13.68-.8,9.39v1.34a44.59,44.59,0,0,0-.27,5.89,64.4,64.4,0,0,0,.54,10.2A83,83,0,0,0,114,127.42a90.84,90.84,0,0,0,7,10.73,68,68,0,0,0,5.62,6.7c1.88,1.88,3.49,3.76,5.63,5.63,1.34,1.08,2.42,2.14,3.76,3.23C137.89,154.77,139.77,156.11,141.91,157.45Z"/>
    </g>
  </g>
</svg>
