<svg id="mkSilverkey" xmlns="http://www.w3.org/2000/svg" viewBox="0 0 167.99 417.88">
  <defs>
    <style>
      .cls-1, .cls-2 {
        fill: #5d5d5e;
        isolation: isolate;
      }

      .cls-1, .cls-7 {
        opacity: 0.3;
      }

      .cls-2 {
        opacity: 0.8;
      }

      .cls-3 {
        fill: #ededed;
      }

      .cls-4 {
        opacity: 0.85;
      }

      .cls-5 {
        fill: #fff;
      }

      .cls-6 {
        fill: #59595b;
      }
    </style>
  </defs>
  <g id="allMkKey">
    <path id="silverShadow" class="cls-1" d="M156.55,34.7l-25.4-16.6A25.27,25.27,0,0,0,117.34,14H62.1A25.22,25.22,0,0,0,48,18.32L23.77,34.67a25.27,25.27,0,0,0-11.12,21v80.92a22.92,22.92,0,0,0,22.83,22.86h8.18a8.07,8.07,0,0,1,8.07,8.08h0v6.62a7.64,7.64,0,0,0,2.8,5.94l5.7,4.7a7.75,7.75,0,0,1,2.8,5.94V398.82A5.64,5.64,0,0,0,65,403.09l15.29,13.39a5.66,5.66,0,0,0,7.81-.33l34.55-35.74,1.15-1.2a5.5,5.5,0,0,0,.13-7.28l-3.25-4.07v-4.72l-7.38-9.62v-12.2l8-10.35,0-14.8-12.11-14.06V284.74L118.43,274l.19-16.63,5.62-10.72.08-18.18L124.24,217a5.27,5.27,0,0,1,5.27-5.27h.78a5.27,5.27,0,0,0,5.27-5.27V169.86A10.4,10.4,0,0,1,146,159.44h0a22.09,22.09,0,0,0,22.09-22.11h0V55.88a25.5,25.5,0,0,0-11.5-21.18ZM64.43,105.2A3.76,3.76,0,0,1,60.67,109H46.76A3.76,3.76,0,0,1,43,105.2h0V74.85A9.82,9.82,0,0,1,52.81,65h1.81a9.81,9.81,0,0,1,9.81,9.81h0V105.2Zm37.53,0A3.76,3.76,0,0,1,98.21,109H84.3a3.77,3.77,0,0,1-3.77-3.76V74.85A9.82,9.82,0,0,1,90.34,65h1.81A9.81,9.81,0,0,1,102,74.84h0ZM89.55,49.06a29.66,29.66,0,0,0-16.46,5,3.37,3.37,0,0,1-3.73,0,29.82,29.82,0,0,0-32.12-.52,1.43,1.43,0,0,1-2.08-1.74,33.42,33.42,0,0,1,29.7-20.31h.06l1,0,1,0h37.72l1,0,1.11,0H107a33.39,33.39,0,0,1,27.95,17.32,3.48,3.48,0,0,1-.4,3.94L122.47,66.8a3.62,3.62,0,0,1-5.1.4,3.56,3.56,0,0,1-.9-1.17,29.84,29.84,0,0,0-26.92-17Zm41.25,62.27H119.45a4.33,4.33,0,0,1-4.33-4.34h0V92.14a4.25,4.25,0,0,1,7.68-2.51L134,105a4,4,0,0,1-.87,5.55,4,4,0,0,1-2.34.77Zm25.54-10.14a3.27,3.27,0,0,1-5.83,2L134.64,83.46a5.19,5.19,0,0,1,.08-6.61l15.83-18.73a3.28,3.28,0,0,1,5.79,2.12v40.95Z"/>
    <path id="Path_418" data-name="Path 418" class="cls-2" d="M82.62,150.49l.07,244.92,2.61-.57L85.23,144A9.43,9.43,0,0,0,82.62,150.49Z"/>
    <path id="Path_419" data-name="Path 419" class="cls-3" d="M145.88,22.69l-25.4-16.6A25.2,25.2,0,0,0,106.69,2H51.44A25.14,25.14,0,0,0,37.31,6.31L13.11,22.66A25.29,25.29,0,0,0,2,43.62v80.92A22.92,22.92,0,0,0,24.81,147.4H33a8.07,8.07,0,0,1,8.06,8.08v6.62A7.68,7.68,0,0,0,43.86,168l5.69,4.7a7.68,7.68,0,0,1,2.81,5.94V386.8a5.64,5.64,0,0,0,1.94,4.27l15.29,13.39a5.66,5.66,0,0,0,7.81-.33L112,368.39l1.13-1.2a5.49,5.49,0,0,0,.14-7.28L110,355.84v-4.72l-7.39-9.62V329.3l8-10.35v-14.8l-12.12-14,0-17.38L107.72,262l.2-16.63,5.62-10.73.07-18.18L113.54,205a5.28,5.28,0,0,1,5.27-5.28h.76a5.28,5.28,0,0,0,5.28-5.27V157.82a10.4,10.4,0,0,1,10.4-10.42,22.1,22.1,0,0,0,22.09-22.11V43.87a25.3,25.3,0,0,0-11.46-21.18ZM53.76,93.19A3.76,3.76,0,0,1,50,97H36.1a3.75,3.75,0,0,1-3.75-3.76h0V62.84A9.81,9.81,0,0,1,42.15,53H44a9.81,9.81,0,0,1,9.8,9.82V93.19Zm37.54,0A3.76,3.76,0,0,1,87.55,97H73.62a3.76,3.76,0,0,1-3.76-3.76h0V62.84A9.82,9.82,0,0,1,79.67,53h1.81a9.81,9.81,0,0,1,9.81,9.81h0ZM78.89,37.05a29.66,29.66,0,0,0-16.46,5,3.37,3.37,0,0,1-3.73,0,29.82,29.82,0,0,0-32.12-.52,1.42,1.42,0,0,1-2.08-1.74A33.43,33.43,0,0,1,54.2,19.44h0l1,0,1,0H94l1,0,1.13,0h.21a33.37,33.37,0,0,1,27.94,17.32,3.46,3.46,0,0,1-.38,3.94L111.79,54.79a3.6,3.6,0,0,1-5.07.41,3.74,3.74,0,0,1-.91-1.18,29.84,29.84,0,0,0-26.92-17Zm41.24,62.27H108.79A4.34,4.34,0,0,1,104.44,95V80.13a4.25,4.25,0,0,1,7.69-2.51L123.33,93a4,4,0,0,1-.86,5.55,4,4,0,0,1-2.34.77Zm25.54-10.14a3.27,3.27,0,0,1-5.83,2L124,71.45a5.2,5.2,0,0,1,.08-6.61L139.89,46.1a3.27,3.27,0,0,1,5.77,2.12v41Z"/>
    <g id="Group_10" data-name="Group 10" class="cls-4">
      <path id="Path_420" data-name="Path 420" class="cls-5" d="M156.56,31.9l-3,3-8.78,8.65L121,67l-8.37,8.25-2.88,2.84a2.06,2.06,0,0,0-.94-.22A2.4,2.4,0,0,0,108,78a2.18,2.18,0,0,0-1.57,2.16v1.15l-4,3.91-9.3,9.16-4.53,4.47L39.19,147.54l-2.87,2.82a6,6,0,0,0-3.32-1H24.45l4-4L75.64,98.92l4-4h7.86a1.77,1.77,0,0,0,1.77-1.77v-7.7l4-3.92,55.1-54.3,2.84-2.78A26.69,26.69,0,0,1,156.56,31.9Z"/>
    </g>
    <g id="Group_11" data-name="Group 11" class="cls-4">
      <path id="Path_421" data-name="Path 421" class="cls-5" d="M30.35,63.66l5.4-5.32a7.89,7.89,0,0,0-1.43,4.5v9.59l-4,3.92L4,102.33l-4,3.92V93.56l4-3.91Z"/>
    </g>
    <g id="Group_12" data-name="Group 12" class="cls-4">
      <path id="Path_422" data-name="Path 422" class="cls-5" d="M71.32,36l-7.79,7.69a0,0,0,0,0,0,0L52.4,54.6l-2.84,2.79A7.75,7.75,0,0,0,44,55H42.14a7.71,7.71,0,0,0-4.36,1.34L43.17,51l9.93-9.79,3-3a28.87,28.87,0,0,1,3.66,2.1,1.43,1.43,0,0,0,1.54,0A31.39,31.39,0,0,1,71.32,36Z"/>
    </g>
    <g id="Group_13" data-name="Group 13" class="cls-4">
      <path id="Path_423" data-name="Path 423" class="cls-5" d="M107.8,0l-4,4L90.11,17.45l-4,4H73.21l4-4L90.91,4l4-4h11.72C107.05,0,107.42,0,107.8,0Z"/>
    </g>
    <g id="Group_14" data-name="Group 14" class="cls-4">
      <path id="Path_424" data-name="Path 424" class="cls-5" d="M137.45,85.07l-2.85,2.8L126,96.35l-5,4.88L50.38,170.85l-2.85,2.81-2.71-2.24,2.85-2.81L116,101.31l4-4h.1a1.93,1.93,0,0,0,1.77-1.09,1.63,1.63,0,0,0,.21-1l3.1-3h0l7.19-7.09,2.85-2.8Z"/>
    </g>
    <g id="Group_15" data-name="Group 15" class="cls-4">
      <path id="Path_425" data-name="Path 425" class="cls-5" d="M159.32,58.62v4.9l-4,3.92L147.65,75l-4,3.9V74l4-3.92,7.7-7.58Z"/>
    </g>
    <g id="Group_16" data-name="Group 16" class="cls-4">
      <path id="Path_426" data-name="Path 426" class="cls-5" d="M159.31,84.71V108l-4,3.92-101,99.51-4,3.91V192.06l4-3.92,101-99.52Z"/>
    </g>
    <g id="Group_17" data-name="Group 17" class="cls-4">
      <path id="Path_427" data-name="Path 427" class="cls-5" d="M126.82,185.59v8.82a7.26,7.26,0,0,1-7.26,7.26h-.76a3.3,3.3,0,0,0-3.29,3.28l0,4.43-4,3.89L54.35,269.68l-4,3.92V260.91l4-3.92,68.5-67.5Z"/>
    </g>
    <g id="Group_18" data-name="Group 18" class="cls-4">
      <path id="Path_428" data-name="Path 428" class="cls-5" d="M115.57,223.12l0,4.93-4,3.93-57.2,56.37-4,3.91v-4.9l4-3.92,57.22-56.38Z"/>
    </g>
    <g id="Group_19" data-name="Group 19" class="cls-4">
      <path id="Path_429" data-name="Path 429" class="cls-5" d="M112.54,312.62v4.91l-12,11.78L54.35,374.87l-4,3.92v-4.9l4-3.92,54.23-53.43Z"/>
    </g>
    <g id="Group_20" data-name="Group 20" class="cls-4">
      <path id="Path_430" data-name="Path 430" class="cls-5" d="M30.35,85.77l4-3.91v4.9l-4,3.92L4,116.67l-4,3.9v-4.9l4-3.91Z"/>
    </g>
    <g id="Group_21" data-name="Group 21" class="cls-4">
      <path id="Path_431" data-name="Path 431" class="cls-5" d="M86,35.87l-3.46,3.41L55.75,65.65l-4,3.92v-4.9l3.81-3.76L77.76,39.06l3.94-3.87A30.62,30.62,0,0,1,86,35.87Z"/>
    </g>
    <g id="Group_22" data-name="Group 22" class="cls-4">
      <path id="Path_432" data-name="Path 432" class="cls-5" d="M119.25,3.09l-3,3L103.59,18.51l-3.39,3.34a29.37,29.37,0,0,0-4-.42h-.57l3.77-3.7,13.16-13,3.22-3.17A25.63,25.63,0,0,1,119.25,3.09Z"/>
    </g>
    <g id="Group_23" data-name="Group 23" class="cls-4">
      <path id="Path_433" data-name="Path 433" class="cls-5" d="M105.27,295l-2.84,2.79L54.35,345.16l-4,3.91V325.83l4-3.92,42.11-41.49,4-3.92v12.86Z"/>
    </g>
    <path id="Path_434" data-name="Path 434" class="cls-6" d="M156.56,31.89A27.21,27.21,0,0,0,147,21L121.58,4.43c-.76-.49-1.54-.94-2.33-1.35A26.86,26.86,0,0,0,107.8,0l-1.13,0H51.44A27.08,27.08,0,0,0,36.2,4.67L12,21A27.24,27.24,0,0,0,0,43.62v80.93a24.84,24.84,0,0,0,24.45,24.83H33a6.07,6.07,0,0,1,6.07,6.09v6.63a9.69,9.69,0,0,0,3.53,7.47l2.23,1.85,2.71,2.23.76.62a5.71,5.71,0,0,1,2.07,4.4V386.8A7.68,7.68,0,0,0,53,392.57L68.26,406a7.66,7.66,0,0,0,10.55-.43l34.56-35.76,1.11-1.18a7.45,7.45,0,0,0,.31-9.84l-2.86-3.59v-4.7l-7.38-9.62V330l8-10.35V303.43L105.27,295l-4.84-5.62v-15.9l9.26-10.72.2-16.88,5.62-10.73,0-7.09,0-4.93,0-6.66,0-7.07,0-4.43a3.3,3.3,0,0,1,3.29-3.28h.76a7.26,7.26,0,0,0,7.26-7.26V157.84a8.44,8.44,0,0,1,8.43-8.44,24.11,24.11,0,0,0,24.07-24.1V43.87A27.33,27.33,0,0,0,156.56,31.89Zm-1.21,93.39a20.15,20.15,0,0,1-20.1,20.13,12.42,12.42,0,0,0-12.4,12.41V194.4a3.3,3.3,0,0,1-3.29,3.28h-.76a7.28,7.28,0,0,0-7.26,7.28l.06,8.3,0,3.19-.06,10.6,0,4.92v2.17l-5.6,10.72-.2,16.38L96.46,272v18.85l6,6.93,6.14,7.12v13.38l-8,10.35v13.57l7.38,9.62v4.74l3.66,4.58c1.82,2.52.35,4.32,0,4.68l-1.14,1.2L76,402.73a3.69,3.69,0,0,1-5.08.21L55.61,389.55a3.69,3.69,0,0,1-1.26-2.78V178.68a9.69,9.69,0,0,0-3.53-7.47l-.44-.36-2.71-2.23-2.56-2.11a5.71,5.71,0,0,1-2.07-4.4v-6.62a10.07,10.07,0,0,0-10-10.06H24.82A20.89,20.89,0,0,1,4,124.56V43.61A23.32,23.32,0,0,1,14.22,24.3L38.43,8a23.15,23.15,0,0,1,13-4h55.23a23.68,23.68,0,0,1,5.92.76A21.84,21.84,0,0,1,116.26,6a23.54,23.54,0,0,1,3.16,1.72l25.38,16.6a23.29,23.29,0,0,1,10.56,19.51Z"/>
    <path id="Path_435" data-name="Path 435" class="cls-6" d="M144.76,43.52a5.62,5.62,0,0,0-.56-.25,5.23,5.23,0,0,0-5.82,1.54L122.54,63.55a7.2,7.2,0,0,0-.12,9.15l10,12.44,2.2,2.74,3.7,4.6a5.27,5.27,0,0,0,9.37-3.29v-41A5.19,5.19,0,0,0,144.76,43.52Zm-1.07,45.66a1.29,1.29,0,0,1-2.3.81l-3.94-4.91-2.2-2.74-9.73-12.13a3.23,3.23,0,0,1,.06-4.09l15.84-18.73a1.12,1.12,0,0,1,.94-.46,1.32,1.32,0,0,1,.48.09,1.24,1.24,0,0,1,.85,1.21Z"/>
    <path id="Path_436" data-name="Path 436" class="cls-6" d="M125.21,92.23h0a3.51,3.51,0,0,0-.27-.4L113.73,76.45a6.33,6.33,0,0,0-1.16-1.21,6.24,6.24,0,0,0-10.11,4.9V95a6.33,6.33,0,0,0,6.33,6.33h11.33a7.12,7.12,0,0,0,.92-.07,5.92,5.92,0,0,0,4.39-3.19,5.34,5.34,0,0,0,.56-1.69A5.86,5.86,0,0,0,125.21,92.23Zm-5.08,5.1H108.8A2.36,2.36,0,0,1,106.44,95V80.13A2.17,2.17,0,0,1,108,78a2.36,2.36,0,0,1,.75-.12,2.17,2.17,0,0,1,1.78.93l11.21,15.38a2,2,0,0,1,.37,1.1,1.73,1.73,0,0,1-.21,1,2,2,0,0,1-1.78,1.09Z"/>
    <path id="Path_437" data-name="Path 437" class="cls-6" d="M81.49,51H79.67a11.81,11.81,0,0,0-11.79,11.8V93.19a5.75,5.75,0,0,0,5.74,5.74H87.54a5.78,5.78,0,0,0,5.62-4.58,5.06,5.06,0,0,0,.13-1.17V62.83A11.82,11.82,0,0,0,81.49,51Zm7.82,42.16A1.76,1.76,0,0,1,87.55,95H73.62a1.76,1.76,0,0,1-1.76-1.77V62.83A7.82,7.82,0,0,1,79.67,55h1.82a7.83,7.83,0,0,1,7.82,7.83Z"/>
    <path id="Path_438" data-name="Path 438" class="cls-6" d="M55.6,60.91a11.88,11.88,0,0,0-3.19-6.3A11.73,11.73,0,0,0,44,51H42.15a11.81,11.81,0,0,0-11.79,11.8V93.19a5.76,5.76,0,0,0,5.75,5.74H50a5.74,5.74,0,0,0,5.74-5.74V62.83A13.69,13.69,0,0,0,55.6,60.91ZM51.78,93.19A1.77,1.77,0,0,1,50,95H36.1a1.78,1.78,0,0,1-1.78-1.77V62.83a7.81,7.81,0,0,1,1.43-4.5,8,8,0,0,1,2-2h0A7.81,7.81,0,0,1,42.15,55H44a7.86,7.86,0,0,1,7.82,7.83Z"/>
    <path id="Path_439" data-name="Path 439" class="cls-6" d="M126,35.81A35.63,35.63,0,0,0,103.6,18.52a34.47,34.47,0,0,0-4.17-.8c-.38,0-.75-.09-1.13-.12v-.13H96.17c-.7,0-1.44,0-2.15,0H56.2c-.6,0-1.21,0-1.82,0h-.24A35.41,35.41,0,0,0,22.69,39a3.37,3.37,0,0,0,.89,3.9,3.42,3.42,0,0,0,4.05.31,27.87,27.87,0,0,1,30,.48,5.35,5.35,0,0,0,5.92,0h0a27.67,27.67,0,0,1,14.23-4.6l1.11,0a26,26,0,0,1,3.64.25A28,28,0,0,1,104,54.87a5.6,5.6,0,0,0,7.48,2.6,5.73,5.73,0,0,0,1.81-1.39L125.39,42A5.52,5.52,0,0,0,126,35.81Zm-3.65,3.6L110.3,53.49a1.62,1.62,0,0,1-1.47.56,1.58,1.58,0,0,1-1.23-.9A32.07,32.07,0,0,0,86,35.86a29.55,29.55,0,0,0-4.28-.68c-1-.09-1.88-.13-2.82-.13a31.78,31.78,0,0,0-17.55,5.29,1.43,1.43,0,0,1-1.54,0,31.66,31.66,0,0,0-32.7-1.45A31.48,31.48,0,0,1,54.2,21.42h.28c.54,0,1.06,0,1.6,0H94.13c.51,0,1,0,1.53,0h.58a29.37,29.37,0,0,1,4,.42,31.6,31.6,0,0,1,22.32,15.86,1.47,1.47,0,0,1-.16,1.72Z"/>
    <path id="Path_440" data-name="Path 440" class="cls-1" d="M144.61,22l-25-16.6A24.45,24.45,0,0,0,106.1,1.32H51.83A24.41,24.41,0,0,0,38,5.65L14.17,22A25.42,25.42,0,0,0,3.25,43v5.33a25.43,25.43,0,0,1,10.93-21L38,11A24.56,24.56,0,0,1,51.84,6.64h54.27a24.4,24.4,0,0,1,13.56,4.11l25,16.59a25.38,25.38,0,0,1,11.25,21.17V43.2A25.41,25.41,0,0,0,144.61,22Z"/>
    <path id="Path_441" data-name="Path 441" class="cls-1" d="M73.29,403.06,106.18,369l1.13-1.2a5.49,5.49,0,0,0,.14-7.28l-3.25-4.07v-4.72l-7.38-9.62v-12.2l8-10.35V304.75L92.69,290.69l0-17.38L102,262.59l.2-16.63,5.62-10.72.07-18.18-.07-11.51a5.27,5.27,0,0,1,5.27-5.27h.76A5.28,5.28,0,0,0,119.1,195h0V158.4A10.4,10.4,0,0,1,129.5,148h5.66a10.43,10.43,0,0,0-10.42,10.42V195a5.27,5.27,0,0,1-5.27,5.27h-.76a5.27,5.27,0,0,0-5.27,5.27l.07,11.51-.07,18.18-5.62,10.72-.2,16.63-9.27,10.72v17.38l12.11,14.06v14.79l-8,10.35v12.21l7.4,9.62v4.72l3.26,4.07a5.5,5.5,0,0,1-.14,7.28l-1.13,1.2L77.29,404.7a5.64,5.64,0,0,1-7.79.32Z"/>
    <path id="Path_442" data-name="Path 442" class="cls-1" d="M83.46,397.81,82.6,155.56A9.49,9.49,0,0,1,92.06,146H135c5.24,0-10.45,4.25-10.45,9.49v43.19s-11.49.89-11.49,8l-.3,26.62L111,239.25l-3,6.21-.59,16-10,12.72L98.24,289l11.82,14.79V320l-8.27,9.47.89,11.54,6.2,9.76.3,5.62,4.14,6.51-.3,3.55L83.46,397.81Z"/>
    <path id="Path_443" data-name="Path 443" class="cls-1" d="M60.79,395.82V135.2a4.73,4.73,0,0,1,9.46,0h0V405.59"/>
    <path id="Path_444" data-name="Path 444" class="cls-2" d="M60.82,135.75l.07,261.3,2.63-.57-.07-265.55A4.9,4.9,0,0,0,60.82,135.75Z"/>
    <path id="Path_445" data-name="Path 445" class="cls-1" d="M74.33,403.62c-2.1,2.17-2.2,2.32-4.48.33L54.56,390.56a5.68,5.68,0,0,1-1.93-4.27V178.17a7.7,7.7,0,0,0-2.8-5.94l-5.7-4.7a7.68,7.68,0,0,1-2.81-5.94V155a8.08,8.08,0,0,0-8.06-8.08l.17-.67h4.84a8.07,8.07,0,0,1,8.06,8.08v6.62a7.68,7.68,0,0,0,2.81,5.94l5.69,4.7a7.68,7.68,0,0,1,2.81,5.94V385.62a5.64,5.64,0,0,0,1.94,4.27l15.2,13.31-.45.42Z"/>
    <path id="Path_446" data-name="Path 446" class="cls-2" d="M82.69,154.41l.07,242.25,2.63-.61-.07-246.83C83.58,150.32,82.7,151.68,82.69,154.41Z"/>
    <g id="Group_24" data-name="Group 24" class="cls-7">
      <path id="Path_447" data-name="Path 447" class="cls-1" d="M88.84,96.87H72.4c-2.46,0-4.45-1.68-4.45-3.76v5.62c0,2.08,2,3.76,4.45,3.76H88.85c2.46,0,4.45-1.68,4.45-3.76V93.11C93.29,95.19,91.3,96.87,88.84,96.87Z"/>
      <path id="Path_448" data-name="Path 448" class="cls-1" d="M51.25,96.87H34.78c-2.46,0-4.45-1.68-4.45-3.76v5.62c0,2.08,2,3.76,4.45,3.76H51.24c2.44,0,4.43-1.68,4.43-3.76V93.11C55.68,95.19,53.69,96.87,51.25,96.87Z"/>
      <path id="Path_449" data-name="Path 449" class="cls-1" d="M111.8,60.33,127,43.09a4.09,4.09,0,0,0,.37-4.32c-.24-.43-1-2.25-1.24-2.67L111.8,54.7a3.6,3.6,0,0,1-5.07.41,3.74,3.74,0,0,1-.91-1.18,29.84,29.84,0,0,0-43.4-12,3.37,3.37,0,0,1-3.73,0,29.8,29.8,0,0,0-32.11-.52c-.06,0-4-1.77-4.11-1.75-.5,1.67-.89,5.1.23,6.49a3.2,3.2,0,0,0,3.88.88,29.8,29.8,0,0,1,32.12.52,3.37,3.37,0,0,0,3.73,0,29.83,29.83,0,0,1,43.38,12,3.59,3.59,0,0,0,6,.76Z"/>
      <path id="Path_450" data-name="Path 450" class="cls-1" d="M140.85,91.55,122.3,68.42c-.13-.17-.68-1.09-.79-1.27-1.4,2.17-.86,5.77.79,7.83l18.55,23.13a3.83,3.83,0,0,0,6.81-2.4V89.14a3.83,3.83,0,0,1-6.81,2.41Z"/>
      <path id="Path_451" data-name="Path 451" class="cls-1" d="M125.05,94.37c-.83.73-2.42,4.87-3.8,4.87H107.64c-2.87,0-5.2-1.95-5.2-4.34v5.62c0,2.4,2.33,4.34,5.2,4.34h13.61a4.52,4.52,0,0,0,4.73-3.53,22.86,22.86,0,0,0,0-6.81Z"/>
    </g>
    <path id="Path_452" data-name="Path 452" class="cls-6" d="M143.65,123.29h0a.39.39,0,0,0,.16-.1.35.35,0,0,0,.1-.26.33.33,0,0,0-.13-.29.7.7,0,0,0-.4-.09h-.24v1.27h.24v-.5l.37.5h.3l-.42-.52Zm-.21-.17h0v-.35h0c.17,0,.26.06.26.17s-.08.18-.27.18"/>
    <path id="Path_453" data-name="Path 453" class="cls-6" d="M144.45,122.59a1,1,0,0,0-.47-.4,1,1,0,0,0-.45-.09,1.08,1.08,0,0,0-.69.25,1,1,0,0,0-.3.38,1.06,1.06,0,0,0-.1.46,1,1,0,0,0,.32.78,1.08,1.08,0,0,0,1.53,0h0a1.06,1.06,0,0,0,.32-.78,1,1,0,0,0-.17-.6Zm-.27,1.27a.81.81,0,0,1-.64.27.91.91,0,0,1-.66-.28,1,1,0,0,1,0-1.33.91.91,0,0,1,1.19-.1.88.88,0,0,1,.28.33,1,1,0,0,1-.17,1.11Z"/>
    <path id="Path_454" data-name="Path 454" class="cls-6" d="M115.09,119l0,5.26h-3.26L111.8,112h3.26l0,5.31L118.7,112l3.88,0-4.43,5.92,5.18,6.38h-4.19Z"/>
    <path id="Path_455" data-name="Path 455" class="cls-6" d="M142,111.92l-2.29,3.86-2.36-3.84-4,0,4.81,7v5.35h3.19l0-5.41,4.59-7Z"/>
    <path id="Path_456" data-name="Path 456" class="cls-6" d="M128.39,114.8a2.35,2.35,0,0,0-2.37,1.72l4.59,0A2.2,2.2,0,0,0,128.39,114.8Zm-6.13,3.26a6,6,0,0,1,5.76-6.32h.39c3.49,0,5.94,2.28,6,6.59,0,.3,0,.45,0,.73l-8.5,0a2.66,2.66,0,0,0,2.84,2.11,3.18,3.18,0,0,0,2.43-1.44l0,0s2.17,1.06,3,1.45l0,0-.1.18a6.34,6.34,0,0,1-5.5,3c-3.72,0-6.3-2.23-6.31-6.29"/>
    <path id="Path_457" data-name="Path 457" class="cls-6" d="M42.09,124.25h-3.7V112h3.67Z"/>
    <path id="Path_458" data-name="Path 458" class="cls-6" d="M57,112l3.66,0s0,6.38,0,6.93A1.94,1.94,0,0,0,62.44,121a1.5,1.5,0,0,0,.3,0,1.85,1.85,0,0,0,2-1.65,2,2,0,0,0,0-.35c0-.71,0-6.24,0-7h3.58s0,4.57,0,7.17c0,3.37-2.16,5.23-5.65,5.24S57,122.36,57,119c0-.88,0-7,0-7"/>
    <path id="Path_459" data-name="Path 459" class="cls-6" d="M44,117.16c0-3.35,2.24-5.35,5.7-5.33s5.66,1.88,5.65,5.24c0,2.6,0,7.17,0,7.17H51.77c0-.79,0-6.35,0-7a1.85,1.85,0,0,0-1.68-2,2,2,0,0,0-.35,0A1.93,1.93,0,0,0,47.69,117a1.71,1.71,0,0,0,0,.32c0,.55,0,7,0,7H44s0-6.21,0-7.1"/>
    <path id="Path_460" data-name="Path 460" class="cls-6" d="M36.4,117.07c0-3.37-2.16-5.23-5.65-5.25A6.09,6.09,0,0,0,26.9,113,6.21,6.21,0,0,0,23,111.82c-3.46,0-5.69,2-5.7,5.33,0,.89,0,7.09,0,7.09l3.67.06s0-6.48,0-7a1.88,1.88,0,0,1,1.65-2.08,1.55,1.55,0,0,1,.43,0,1.84,1.84,0,0,1,2,1.68,1.41,1.41,0,0,1,0,.29c0,.89,0,7,0,7l0,0v0l3.59,0,.07,0c0-.62,0-6.42,0-7a1.93,1.93,0,0,1,1.75-2.08h.32a1.85,1.85,0,0,1,2,1.65,2,2,0,0,1,0,.35c0,.71,0,6.24,0,7l3.64,0s-.06-4.57,0-7.17"/>
    <path id="Path_461" data-name="Path 461" class="cls-6" d="M84.31,114.81a2.35,2.35,0,0,0-2.37,1.72l4.59,0a2.17,2.17,0,0,0-2.22-1.7Zm-6.13,3.25a6,6,0,0,1,5.76-6.33h.4c3.49,0,6,2.28,6,6.59,0,.24,0,.49,0,.73l-8.5,0a2.67,2.67,0,0,0,2.85,2.11,3.13,3.13,0,0,0,2.41-1.45l0,0,3,1.45v0l-.11.18a6.34,6.34,0,0,1-5.5,3C80.78,124.37,78.21,122.12,78.18,118.06Z"/>
    <path id="Path_462" data-name="Path 462" class="cls-6" d="M77.6,112h0v0l-7.72,0h0l0,3.68h2l0,8.6,3.64,0v-8.62h2Z"/>
    <path id="Path_463" data-name="Path 463" class="cls-6" d="M108,110.56c-.13-.53-.62-.72-1.2-.71l-1.36,0a.31.31,0,0,0-.21,0,.27.27,0,0,0-.1.17l-.21.82-.1.4a.12.12,0,0,1-.06.1l-.1,0-.38.09-.76.18a.27.27,0,0,0-.14.07.27.27,0,0,0-.1.17l-.34,1.13-.32-.12-.34-.11a4.26,4.26,0,0,0-1-.16,4.21,4.21,0,1,0,4,4.37h0a3.88,3.88,0,0,0-.27-1.65l-.06-.18,2.34-3.17c.54-.74.8-1,.67-1.53"/>
    <path id="Path_464" data-name="Path 464" class="cls-6" d="M101.07,108.14a8.78,8.78,0,0,0-8.77,8.7v.08a8.77,8.77,0,0,0,8.68,8.77h.08a8.78,8.78,0,0,0,8.77-8.7v-.08a8.63,8.63,0,0,0-1.26-4.53l-2,2.62a5.4,5.4,0,0,1,.32,1.91v0a5.82,5.82,0,0,1-5.82,5.77H101a5.82,5.82,0,0,1-5.76-5.82v-.06a5.82,5.82,0,0,1,5.82-5.77h.06a6,6,0,0,1,1.33.17l2-2.42a8.78,8.78,0,0,0-3.35-.7Z"/>
  </g>
</svg>
